<svg width="50" height="50" viewBox="0 0 50 50"  xmlns="http://www.w3.org/2000/svg">
<g clip-path="url(#clip0)">
<path d="M48.5021 18.8941C48.3459 18.7379 48.1339 18.6501 47.9128 18.6501H26.8667C26.1723 18.6584 25.602 18.1033 25.5917 17.4089V9.40171C25.6407 5.67892 23.4599 2.28732 20.0525 0.786998C16.6451 -0.713327 12.6709 -0.0318051 9.95799 2.51814C8.12062 4.2239 7.07959 6.61987 7.08662 9.12705V9.21825C4.8705 9.46694 2.86372 10.6434 1.56434 12.4557C1.20248 12.9562 1.15308 13.6177 1.43662 14.1664C1.70474 14.6989 2.24967 15.0352 2.84585 15.0362H7.08662V19.0084C7.13807 27.7993 12.6127 35.6452 20.8458 38.7272L18.8464 45.3881L15.6626 48.5724C15.4489 48.7823 15.3643 49.0906 15.4409 49.38C15.5176 49.6695 15.7436 49.8956 16.0331 49.9722C16.3226 50.0488 16.6309 49.9642 16.8407 49.7506L19.5843 47.0069L22.328 49.7506C22.6539 50.0724 23.1785 50.0707 23.5025 49.7468C23.8264 49.423 23.828 48.8984 23.5062 48.5723L20.5257 45.5917L22.4314 39.242C23.9678 39.6738 25.5501 39.9212 27.1449 39.9792C27.4041 39.9884 27.6616 39.9926 27.919 39.9928L28.7 45.536L25.6608 48.5719C25.3384 48.8978 25.3397 49.4228 25.6638 49.747C25.9878 50.0713 26.5129 50.073 26.8389 49.7508L29.5843 47.0085L32.3263 49.7504C32.6525 50.0707 33.1758 50.0683 33.4991 49.7451C33.8224 49.4218 33.8247 48.8985 33.5044 48.5722L30.3686 45.4364L29.5921 39.9238C34.4367 39.5635 39.0015 37.5151 42.4913 34.1354C46.4949 30.314 48.7557 25.0177 48.7459 19.483C48.7461 19.2623 48.6584 19.0504 48.5021 18.8941ZM2.96058 13.3699C4.11155 11.7918 5.94151 10.8517 7.89458 10.835H8.39987C9.06733 10.8792 9.58618 11.4335 9.58618 12.1024C9.58618 12.7713 9.06733 13.3257 8.39987 13.3699H2.96058ZM41.3345 32.9364C37.5641 36.5954 32.4535 38.5404 27.2044 38.3139C16.8966 37.8142 8.78623 29.3284 8.75303 19.0085V14.9996C10.1891 14.7868 11.2526 13.5542 11.2526 12.1024C11.2526 10.6506 10.1891 9.41802 8.75303 9.20526V9.12705C8.74805 7.08044 9.59849 5.12482 11.0988 3.73287C13.3273 1.63783 16.5932 1.07992 19.3908 2.31632C22.1884 3.55273 23.9744 6.34336 23.9254 9.40161V17.4088C23.9366 19.0232 25.2524 20.3238 26.8668 20.3164H47.0618C46.8545 25.105 44.802 29.6275 41.3345 32.9364Z" fill="black"/>
<path d="M15.8351 6.66895C14.2246 6.66895 12.9189 7.97458 12.9189 9.58514C12.9189 11.1957 14.2246 12.5013 15.8351 12.5013C17.4457 12.5013 18.7513 11.1957 18.7513 9.58514C18.7494 7.97536 17.4449 6.6709 15.8351 6.66895ZM15.8351 10.8349C15.1449 10.8349 14.5854 10.2753 14.5854 9.58514C14.5854 8.89493 15.1449 8.33535 15.8351 8.33535C16.5253 8.33535 17.0849 8.89493 17.0849 9.58514C17.0841 10.2751 16.5251 10.8341 15.8351 10.8349Z" fill="black"/>
<path d="M19.584 28.7483C19.584 32.1796 22.3508 34.9692 25.7821 34.9972C28.1848 34.9972 34.3922 31.9777 37.8788 30.1774C38.4127 29.9006 38.7478 29.3494 38.7478 28.748C38.7478 28.1466 38.4127 27.5954 37.8788 27.3186C34.3923 25.5187 28.1849 22.4993 25.7822 22.4993C22.3508 22.5274 19.584 25.3169 19.584 28.7483ZM25.782 33.3309C23.2713 33.3026 21.2509 31.2592 21.2509 28.7484C21.2509 26.2375 23.2713 24.1942 25.782 24.1659C27.2491 24.1659 31.4443 25.8778 37.0146 28.7484C31.4443 31.6189 27.2491 33.3309 25.782 33.3309Z" fill="black"/>
</g>
<defs>
<clipPath id="clip0">
<rect width="50" height="50" fill="white"/>
</clipPath>
</defs>
</svg>
