<svg width="50" height="50" viewBox="0 0 50 50" fill="black" xmlns="http://www.w3.org/2000/svg">
<path d="M31 20C35.962 20 40 15.962 40 11C40 6.038 35.962 2 31 2C30.448 2 30 2.448 30 3C30 3.552 30.448 4 31 4C34.86 4 38 7.14 38 11C38 14.86 34.86 18 31 18H9C4.038 18 0 22.038 0 27C0 27.552 0.448 28 1 28C1.552 28 2 27.552 2 27C2 23.14 5.14 20 9 20H31Z" fill="black"/>
<path d="M38 30H18C17.448 30 17 30.448 17 31C17 31.552 17.448 32 18 32H38C41.86 32 45 35.14 45 39C45 42.86 41.86 46 38 46C37.448 46 37 46.448 37 47C37 47.552 37.448 48 38 48C42.962 48 47 43.962 47 39C47 34.038 42.962 30 38 30Z" fill="black"/>
<path d="M27 12C27.552 12 28 11.552 28 11C28 9.346 29.346 8 31 8C32.654 8 34 9.346 34 11C34 12.654 32.654 14 31 14C30.448 14 30 14.448 30 15C30 15.552 30.448 16 31 16C33.757 16 36 13.757 36 11C36 8.243 33.757 6 31 6C28.243 6 26 8.243 26 11C26 11.552 26.448 12 27 12Z" fill="black"/>
<path d="M43 39C43 36.243 40.757 34 38 34C37.448 34 37 34.448 37 35C37 35.552 37.448 36 38 36C39.654 36 41 37.346 41 39C41 40.654 39.654 42 38 42C36.346 42 35 40.654 35 39C35 38.448 34.552 38 34 38C33.448 38 33 38.448 33 39C33 41.757 35.243 44 38 44C40.757 44 43 41.757 43 39Z" fill="black"/>
<path d="M32 34H26C25.448 34 25 34.448 25 35C25 35.552 25.448 36 26 36H32C32.552 36 33 35.552 33 35C33 34.448 32.552 34 32 34Z" fill="black"/>
<path d="M21 16H27C27.552 16 28 15.552 28 15C28 14.448 27.552 14 27 14H21C20.448 14 20 14.448 20 15C20 15.552 20.448 16 21 16Z" fill="black"/>
<path d="M41 23C41 22.448 40.552 22 40 22H9C8.448 22 8 22.448 8 23C8 23.552 8.448 24 9 24H40C40.552 24 41 23.552 41 23Z" fill="black"/>
<path d="M49 26H13C12.448 26 12 26.448 12 27C12 27.552 12.448 28 13 28H49C49.552 28 50 27.552 50 27C50 26.448 49.552 26 49 26Z" fill="black"/>
</svg>
